<svg xmlns="http://www.w3.org/2000/svg" viewBox="0 0 48 48"><radialGradient id="a" cx="10.332" cy="9.181" r="40.041" gradientUnits="userSpaceOnUse"><stop offset="0" stop-color="#6fcefc"/><stop offset="1" stop-color="#167cf7"/></radialGradient><path fill="url(#a)" d="M4 24C4 12.955 12.955 4 24 4s20 8.955 20 20-8.955 20-20 20S4 35.045 4 24z"/><radialGradient id="b" cx="11.265" cy="8.48" r="40.155" gradientUnits="userSpaceOnUse"><stop offset=".001" stop-color="#54c0f5"/><stop offset=".998" stop-color="#0b69db"/></radialGradient><path fill="url(#b)" d="M41 24c0-3.239-.673-6.291-1.839-9h2.682a19.836 19.836 0 00-1.148-2h-2.512C35.138 7.584 29.921 4 24 4S12.862 7.584 9.817 13H7.305c-.423.64-.8 1.311-1.148 2h2.682C7.673 17.709 7 20.761 7 24s.673 6.291 1.839 9H6.157c.348.689.725 1.36 1.148 2h2.512c3.045 5.416 8.262 9 14.183 9s11.138-3.584 14.183-9h2.512c.423-.64.8-1.311 1.148-2h-2.682A22.751 22.751 0 0041 24zm-2 0c0 3.28-.747 6.349-2.029 9h-5.793c.543-2.833.822-5.947.822-9s-.279-6.167-.822-9h5.793C38.253 17.651 39 20.72 39 24zM24 42c-1.69 0-3.491-2.637-4.674-7h9.349c-1.184 4.363-2.985 7-4.675 7zm-5.152-9c-.527-2.587-.848-5.629-.848-9s.321-6.413.848-9h10.304c.527 2.587.848 5.629.848 9s-.321 6.413-.848 9H18.848zM24 6c1.69 0 3.491 2.637 4.674 7h-9.349C20.509 8.637 22.31 6 24 6zm11.847 7h-5.111c-.626-2.499-1.479-4.684-2.552-6.273 3.079 1.076 5.745 3.305 7.663 6.273zM19.816 6.727c-1.073 1.59-1.926 3.774-2.552 6.273h-5.111c1.918-2.968 4.584-5.197 7.663-6.273zM9 24c0-3.28.747-6.349 2.029-9h5.793c-.543 2.833-.822 5.947-.822 9s.279 6.167.822 9h-5.793C9.747 30.349 9 27.28 9 24zm3.153 11h5.111c.626 2.499 1.479 4.684 2.552 6.273-3.079-1.076-5.745-3.305-7.663-6.273zm16.031 6.273c1.073-1.59 1.926-3.774 2.552-6.273h5.111c-1.918 2.968-4.584 5.197-7.663 6.273z"/><path d="M42.334 19h-2.64a.74.74 0 00-.724.587l-.471 2.242-.581-2.273a.738.738 0 00-.716-.556h-2.404a.74.74 0 00-.717.557L33.5 21.83l-.471-2.242a.738.738 0 00-.723-.588h-4.612a.74.74 0 00-.724.587l-.471 2.242-.581-2.273a.738.738 0 00-.716-.556h-2.404a.74.74 0 00-.717.557L21.5 21.83l-.471-2.242a.738.738 0 00-.723-.588h-4.612a.74.74 0 00-.724.587l-.471 2.242-.581-2.273a.738.738 0 00-.716-.556h-2.404a.74.74 0 00-.717.557l-.58 2.273-.471-2.243A.74.74 0 008.306 19h-2.64a.74.74 0 00-.717.919l2.13 8.521a.74.74 0 00.717.56h2.854a.734.734 0 00.713-.544c.192-.715.518-1.933.636-2.38.118.447.444 1.665.636 2.38.088.323.38.544.715.544h2.854a.74.74 0 00.717-.56L18 24.125l1.079 4.315a.74.74 0 00.717.56h2.854a.734.734 0 00.713-.544c.192-.715.518-1.933.636-2.38.118.447.444 1.665.636 2.38.088.323.38.544.715.544h2.854a.74.74 0 00.717-.56L30 24.125l1.079 4.315a.74.74 0 00.717.56h2.854a.734.734 0 00.713-.544c.192-.715.518-1.933.636-2.38.118.447.444 1.665.636 2.38.088.323.38.544.715.544h2.854a.74.74 0 00.717-.56l2.13-8.521a.74.74 0 00-.717-.919z" opacity=".05"/><path d="M41.953 19.5h-2.017a.537.537 0 00-.526.427l-.863 4.109-1.055-4.132a.537.537 0 00-.521-.404h-1.942a.538.538 0 00-.521.404l-1.055 4.132-.864-4.109a.537.537 0 00-.526-.427h-4.129a.537.537 0 00-.526.427l-.863 4.109-1.055-4.132a.537.537 0 00-.521-.404h-1.942a.538.538 0 00-.521.404l-1.055 4.132-.864-4.109a.537.537 0 00-.526-.427h-4.129a.537.537 0 00-.526.427l-.863 4.109-1.055-4.132a.537.537 0 00-.521-.404h-1.942a.538.538 0 00-.521.404l-1.055 4.132-.859-4.109a.536.536 0 00-.525-.427H6.047a.537.537 0 00-.521.668l1.981 7.925c.06.239.275.407.521.407h2.393a.534.534 0 00.518-.396c.242-.904.985-3.683 1.059-4.066.075.383.817 3.163 1.059 4.066a.534.534 0 00.518.396h2.393a.537.537 0 00.521-.407L18 22.063l1.508 6.03c.06.239.275.407.521.407h2.393a.534.534 0 00.518-.396c.242-.904.985-3.683 1.059-4.066.075.383.817 3.163 1.059 4.066a.534.534 0 00.518.396h2.393a.537.537 0 00.521-.407l1.51-6.03 1.508 6.03c.06.239.275.407.521.407h2.393a.534.534 0 00.518-.396c.242-.904.985-3.683 1.059-4.066.075.383.817 3.163 1.059 4.066a.534.534 0 00.518.396h2.393a.537.537 0 00.521-.407l1.981-7.925a.534.534 0 00-.518-.668z" opacity=".07"/><path fill="#fff" d="M27.905 20l-1.312 6.243L25 20h-2l-1.593 6.243L20.095 20H18l2 8h2.451s1.513-5.636 1.549-6c.036.364 1.549 6 1.549 6H28l2-8h-2.095zm-12 0l-1.312 6.243L13 20h-2l-1.593 6.243L8.095 20H6l2 8h2.451s1.513-5.636 1.549-6c.036.364 1.549 6 1.549 6H16l2-8h-2.095zm24 0l-1.312 6.243L37 20h-2l-1.593 6.243L32.095 20H30l2 8h2.451s1.513-5.636 1.549-6c.036.364 1.549 6 1.549 6H40l2-8h-2.095z"/></svg>